<svg xmlns="http://www.w3.org/2000/svg" viewBox="0 0 200 200">
  <defs>
    <linearGradient id="bg1" x1="0" y1="0" x2="0" y2="1">
      <stop offset="0%" stop-color="#fde4d0"/>
      <stop offset="100%" stop-color="#f4c8a0"/>
    </linearGradient>
    <linearGradient id="skin1" x1="0" y1="0" x2="0" y2="1">
      <stop offset="0%" stop-color="#fce4c8"/>
      <stop offset="100%" stop-color="#e6c39a"/>
    </linearGradient>
  </defs>
  <circle cx="100" cy="100" r="100" fill="url(#bg1)"/>
  <!-- 髪 -->
  <path d="M 60 75 Q 60 50 100 50 Q 140 50 140 75 Q 140 90 140 110 L 145 130 Q 145 125 140 115 L 135 105 Q 130 100 130 95 L 70 95 Q 70 100 65 105 L 60 115 Q 55 125 55 130 L 60 110 Q 60 90 60 75 Z" fill="#3a2820"/>
  <!-- 顔 -->
  <ellipse cx="100" cy="105" rx="35" ry="40" fill="url(#skin1)"/>
  <!-- 髪の前髪 -->
  <path d="M 70 90 Q 80 75 100 75 Q 120 75 130 90 Q 125 85 110 88 Q 100 90 90 88 Q 75 85 70 90 Z" fill="#3a2820"/>
  <!-- 目 -->
  <ellipse cx="88" cy="105" rx="2.5" ry="4" fill="#2a1810"/>
  <ellipse cx="112" cy="105" rx="2.5" ry="4" fill="#2a1810"/>
  <!-- 微笑み -->
  <path d="M 90 122 Q 100 128 110 122" stroke="#a04030" stroke-width="2" fill="none" stroke-linecap="round"/>
  <!-- ほっぺ -->
  <circle cx="82" cy="115" r="3" fill="#f4a890" opacity="0.6"/>
  <circle cx="118" cy="115" r="3" fill="#f4a890" opacity="0.6"/>
  <!-- 服 -->
  <path d="M 65 155 Q 70 145 100 145 Q 130 145 135 155 L 140 200 L 60 200 Z" fill="#e8a878"/>
</svg>
