<svg xmlns="http://www.w3.org/2000/svg" viewBox="0 0 200 200">
  <defs>
    <linearGradient id="bg2" x1="0" y1="0" x2="0" y2="1">
      <stop offset="0%" stop-color="#e3f0ff"/>
      <stop offset="100%" stop-color="#b8d4ee"/>
    </linearGradient>
    <linearGradient id="skin2" x1="0" y1="0" x2="0" y2="1">
      <stop offset="0%" stop-color="#fce4c8"/>
      <stop offset="100%" stop-color="#e6c39a"/>
    </linearGradient>
  </defs>
  <circle cx="100" cy="100" r="100" fill="url(#bg2)"/>
  <path d="M 55 75 Q 55 45 100 45 Q 145 45 145 75 L 145 130 Q 140 110 130 105 L 70 105 Q 60 110 55 130 Z" fill="#5a3820"/>
  <ellipse cx="100" cy="110" rx="35" ry="40" fill="url(#skin2)"/>
  <ellipse cx="88" cy="108" rx="2.5" ry="4" fill="#2a1810"/>
  <ellipse cx="112" cy="108" rx="2.5" ry="4" fill="#2a1810"/>
  <path d="M 90 125 Q 100 132 110 125" stroke="#a04030" stroke-width="2" fill="none" stroke-linecap="round"/>
  <circle cx="82" cy="118" r="3" fill="#f4a890" opacity="0.6"/>
  <circle cx="118" cy="118" r="3" fill="#f4a890" opacity="0.6"/>
  <path d="M 60 155 Q 65 145 100 145 Q 135 145 140 155 L 145 200 L 55 200 Z" fill="#a8b8d0"/>
</svg>
