<svg xmlns="http://www.w3.org/2000/svg" viewBox="0 0 200 200">
  <defs>
    <linearGradient id="bg6" x1="0" y1="0" x2="0" y2="1">
      <stop offset="0%" stop-color="#d8e8f8"/>
      <stop offset="100%" stop-color="#a8c8e8"/>
    </linearGradient>
    <linearGradient id="skin6" x1="0" y1="0" x2="0" y2="1">
      <stop offset="0%" stop-color="#fce4c8"/>
      <stop offset="100%" stop-color="#e6c39a"/>
    </linearGradient>
  </defs>
  <circle cx="100" cy="100" r="100" fill="url(#bg6)"/>
  <path d="M 65 70 Q 65 45 100 45 Q 135 45 135 70 Q 140 90 130 100 L 70 100 Q 60 90 65 70 Z" fill="#2a1810"/>
  <ellipse cx="100" cy="108" rx="33" ry="38" fill="url(#skin6)"/>
  <ellipse cx="88" cy="106" rx="2.5" ry="4" fill="#2a1810"/>
  <ellipse cx="112" cy="106" rx="2.5" ry="4" fill="#2a1810"/>
  <path d="M 90 122 Q 100 128 110 122" stroke="#a04030" stroke-width="2" fill="none" stroke-linecap="round"/>
  <circle cx="82" cy="114" r="3" fill="#f4a890" opacity="0.6"/>
  <circle cx="118" cy="114" r="3" fill="#f4a890" opacity="0.6"/>
  <path d="M 60 153 Q 65 143 100 143 Q 135 143 140 153 L 145 200 L 55 200 Z" fill="#7a98b8"/>
</svg>
